<svg xmlns="http://www.w3.org/2000/svg" width="30" height="30" viewBox="0 0 30 30"><defs><style>.a{fill:#fff;stroke:#e3e0e0;}.b{fill:#787878;}.c{stroke:none;}.d{fill:none;}</style></defs><g transform="translate(-362 -398)"><g class="a" transform="translate(362 398)"><rect class="c" width="30" height="30" rx="2"/><rect class="d" x="0.5" y="0.5" width="29" height="29" rx="1.5"/></g><g transform="translate(371 406.998)"><g transform="translate(0 0.002)"><path class="b" d="M10.49,0H1.259A1.259,1.259,0,0,0,0,1.261V7.974A1.259,1.259,0,0,0,1.259,9.233h1.49L2.52,11.285a.42.42,0,0,0,.7.358L5.9,9.233H10.49a1.259,1.259,0,0,0,1.259-1.259V1.261A1.259,1.259,0,0,0,10.49,0Zm.42,7.972a.42.42,0,0,1-.42.42H5.735a.42.42,0,0,0-.281.108l-1.978,1.78L3.634,8.86a.42.42,0,0,0-.37-.464l-.047,0H1.259a.42.42,0,0,1-.42-.42V1.261a.42.42,0,0,1,.42-.42H10.49a.42.42,0,0,1,.42.42V7.974Z" transform="translate(0 -0.002)"/></g></g></g></svg>