<svg xmlns="http://www.w3.org/2000/svg" width="29.549" height="27.411" viewBox="0 0 29.549 27.411"><defs><style>.a{fill:#787878;}</style></defs><path class="a" d="M120.817,45.611V42.864a2.6,2.6,0,1,0-5.194,0v.409l-3.985-3.985a2.567,2.567,0,0,0-4.166.782,2.6,2.6,0,0,0-3.875,2.114,2.6,2.6,0,0,0-2.449,2.449,2.6,2.6,0,0,0-1.692,4.429l.717.717a2.6,2.6,0,0,0-.717,4.18l8.162,8.162a5.489,5.489,0,0,0,7.754,0l6.247-6.247a3.153,3.153,0,0,0,.93-2.245v-5.57A2.6,2.6,0,0,0,120.817,45.611Zm-11.587-5.1a.838.838,0,0,1,1.183,0l5.463,5.463a.866.866,0,0,0,1.478-.612v-2.5a.866.866,0,0,1,1.731,0v2.746h0a2.6,2.6,0,0,0-1.731,2.448V49.82L109.23,41.7A.838.838,0,0,1,109.23,40.512Zm-3.652,1.2a.867.867,0,0,1,1.224,0l.718.718a2.589,2.589,0,0,0-1.224,1.224l-.718-.718a.866.866,0,0,1,0-1.224Zm15.24,11.913a1.434,1.434,0,0,1-.422,1.02L114.148,60.9a3.756,3.756,0,0,1-5.305,0l-4.489-4.489-3.673-3.673a.866.866,0,1,1,1.224-1.224l3.673,3.673a.866.866,0,1,0,1.224-1.224l-6.121-6.121a.866.866,0,1,1,1.224-1.224l6.121,6.121a.854.854,0,0,0,.066.06.866.866,0,0,0,1.093,0,.851.851,0,0,0,.066-.06.865.865,0,0,0,0-1.224l-6.121-6.121a.866.866,0,1,1,1.224-1.224l2.449,2.449,3.673,3.673a.866.866,0,1,0,1.224-1.224l-3.673-3.673a.866.866,0,1,1,1.224-1.224l3.673,3.673,4.685,4.685a.866.866,0,0,0,1.478-.612V48.059a.866.866,0,1,1,1.731,0Zm0,0" transform="translate(-92.999 -36.313)"/><path class="a" d="M120.866,4.5a.866.866,0,0,0,.866-.866V.866a.866.866,0,0,0-1.731,0v2.77A.866.866,0,0,0,120.866,4.5Zm0,0" transform="translate(-113.074)"/><path class="a" d="M30.478,29.254a.866.866,0,0,0-1.224,1.224l2.078,2.078a.866.866,0,0,0,1.224-1.224Zm0,0" transform="translate(-27.326 -27.326)"/><path class="a" d="M3.636,120H.866a.866.866,0,0,0,0,1.731h2.77a.866.866,0,0,0,0-1.731Zm0,0" transform="translate(0 -113.074)"/></svg>