<svg xmlns="http://www.w3.org/2000/svg" width="30" height="30" viewBox="0 0 30 30"><defs><style>.a{fill:#e81616;}.b{fill:#fff;}</style></defs><g transform="translate(-844 -523)"><rect class="a" width="30" height="30" transform="translate(844 523)"/><g transform="translate(851 453)"><g transform="translate(10.392 81.987)"><path class="b" d="M339.392,148.378l5.285,3.341V144.9Z" transform="translate(-339.392 -144.896)"/></g><g transform="translate(0 81.987)"><path class="b" d="M0,144.9v6.824l5.285-3.341Z" transform="translate(0 -144.896)"/></g><g transform="translate(0.029 80)"><g transform="translate(0 0)"><path class="b" d="M15.628,80H1.91a.968.968,0,0,0-.95.834l7.809,5.145,7.809-5.145A.968.968,0,0,0,15.628,80Z" transform="translate(-0.96 -80)"/></g></g><g transform="translate(0.031 86.06)"><g transform="translate(0 0)"><path class="b" d="M10.487,277.921l-1.386.913a.492.492,0,0,1-.539,0l-1.386-.914-6.151,3.891a.966.966,0,0,0,.948.827H15.69a.966.966,0,0,0,.948-.827Z" transform="translate(-1.024 -277.92)"/></g></g></g></g></svg>