<svg xmlns="http://www.w3.org/2000/svg" width="22.922" height="14.61" viewBox="0 0 22.922 14.61"><defs><style>.a{fill:#eee;}</style></defs><g transform="translate(0 -92.835)"><g transform="translate(0 92.835)"><g transform="translate(0 0)"><path class="a" d="M22.776,99.694c-.2-.28-5.084-6.859-11.315-6.859S.35,99.414.145,99.694a.756.756,0,0,0,0,.892c.2.28,5.084,6.859,11.315,6.859s11.111-6.579,11.315-6.859A.755.755,0,0,0,22.776,99.694Zm-11.315,6.239c-4.59,0-8.566-4.366-9.743-5.794,1.175-1.429,5.143-5.793,9.743-5.793s8.565,4.366,9.743,5.794C20.028,101.569,16.061,105.933,11.461,105.933Z" transform="translate(0 -92.835)"/></g></g><g transform="translate(6.927 95.606)"><g transform="translate(0 0)"><path class="a" d="M159.256,154.725a4.534,4.534,0,1,0,4.534,4.534A4.539,4.539,0,0,0,159.256,154.725Zm0,7.557a3.023,3.023,0,1,1,3.023-3.023A3.026,3.026,0,0,1,159.256,162.282Z" transform="translate(-154.722 -154.725)"/></g></g></g></svg>