<svg xmlns="http://www.w3.org/2000/svg" xmlns:xlink="http://www.w3.org/1999/xlink" width="206.876" height="42.036" viewBox="0 0 206.876 42.036"><defs><style>.a{fill:none;}.b{fill:#4832c3;}.c{fill:#00a611;}.d{fill:#da360a;}.e{fill:#ffa300;}.f{opacity:0.44;}.g{clip-path:url(#a);}</style><clipPath id="a"><rect class="a" width="0.234" height="0.079" transform="translate(172.365 82.8)"/></clipPath></defs><g transform="translate(-147.896 -72.869)"><path class="b" d="M188.4,80.5a8.454,8.454,0,0,1,6.4,2.839,10.453,10.453,0,0,1,0,13.917,8.447,8.447,0,0,1-6.4,2.839,7.177,7.177,0,0,1-6.012-2.709V107H177.6V81.016h4.787v2.19A7.183,7.183,0,0,1,188.4,80.5m-4.565,13.564a4.934,4.934,0,0,0,3.674,1.467,5,5,0,0,0,3.692-1.467,5.573,5.573,0,0,0,0-7.533,5.008,5.008,0,0,0-3.692-1.466,4.945,4.945,0,0,0-3.674,1.466,5.622,5.622,0,0,0,0,7.533"/><path class="b" d="M210.826,80.5a8.454,8.454,0,0,1,6.4,2.839,10.451,10.451,0,0,1,0,13.917,8.447,8.447,0,0,1-6.4,2.839,7.18,7.18,0,0,1-6.012-2.709V107h-4.787V81.016h4.787v2.19a7.186,7.186,0,0,1,6.012-2.709m-4.564,13.564a4.934,4.934,0,0,0,3.674,1.467,5,5,0,0,0,3.692-1.467,5.573,5.573,0,0,0,0-7.533,5.008,5.008,0,0,0-3.692-1.466,4.945,4.945,0,0,0-3.674,1.466,5.622,5.622,0,0,0,0,7.533"/><path class="b" d="M239.228,97.48a9.8,9.8,0,1,1,0-13.917,9.9,9.9,0,0,1,0,13.917M228.669,94.2a4.822,4.822,0,0,0,3.582,1.447,4.886,4.886,0,0,0,3.6-1.447,5.386,5.386,0,0,0,0-7.348,4.887,4.887,0,0,0-3.6-1.448,4.823,4.823,0,0,0-3.582,1.448,5.436,5.436,0,0,0,0,7.348"/><path class="b" d="M249.444,84.725a5,5,0,0,1,2.208-2.672,6.747,6.747,0,0,1,3.433-.891v5.345a5.647,5.647,0,0,0-3.915.89,4.252,4.252,0,0,0-1.726,3.823v8.87h-4.788V80.95h4.788Z"/><path class="b" d="M269.866,85.986h-4.194v7.719a1.832,1.832,0,0,0,.483,1.411,2.2,2.2,0,0,0,1.41.5,20.52,20.52,0,0,0,2.3-.019V99.94q-4.938.558-6.959-.928T260.884,93.7V85.985h-3.228V80.95h3.228V77.636l4.787-1.447V80.95h4.194Z"/><path class="b" d="M284.981,81.017h4.788v19.075h-4.788v-2.6a6.181,6.181,0,0,1-5.53,2.6,6.709,6.709,0,0,1-5.028-2.041,7.74,7.74,0,0,1-1.985-5.641V81.017h4.787v10.8a3.8,3.8,0,0,0,1,2.839,3.643,3.643,0,0,0,2.672.984,3.936,3.936,0,0,0,2.969-1.151,4.786,4.786,0,0,0,1.113-3.451Z"/><path class="b" d="M302.635,80.95c2.029,0,3.7.227,5.029,1.587a7.756,7.756,0,0,1,1.986,5.641V100.09h-4.788V88.773a3.8,3.8,0,0,0-1-2.839,3.656,3.656,0,0,0-2.672-.983,3.945,3.945,0,0,0-2.969,1.15,4.784,4.784,0,0,0-1.113,3.451V100.09h-4.787V81.016h4.787V83.1c1.162-1.731,3.006-2.144,5.529-2.144"/><path class="b" d="M315.152,78.79a2.977,2.977,0,0,1-2.932-2.932,2.875,2.875,0,0,1,.872-2.078,2.787,2.787,0,0,1,2.06-.891,2.831,2.831,0,0,1,2.1.891,2.883,2.883,0,0,1,.872,2.078,2.819,2.819,0,0,1-.872,2.06,2.856,2.856,0,0,1-2.1.872"/><rect class="b" width="4.788" height="19.073" transform="translate(312.777 81.017)"/><path class="b" d="M332.9,85.984h-4.194V93.7a1.829,1.829,0,0,0,.483,1.41,2.2,2.2,0,0,0,1.41.5,20.287,20.287,0,0,0,2.3-.019v4.343q-4.938.557-6.959-.928T323.92,93.7V85.983h-3.229V80.95h3.229V77.633l4.787-1.447V80.95H332.9Z"/><path class="b" d="M349.65,81.017h5.122L348.006,99.6a12.252,12.252,0,0,1-3.838,5.776A8.793,8.793,0,0,1,338.219,107v-4.453a4.817,4.817,0,0,0,3.062-.817,5.705,5.705,0,0,0,1.8-2.746l-7.608-17.962h5.233l4.839,12.472Z"/><path class="b" d="M174.421,82.189,172.6,82.8h-.038a.276.276,0,0,0-.2.082l-2.7.908a8.589,8.589,0,0,0-16.748,2.572v.112a8.59,8.59,0,0,0,11.807,7.965l.656.848,2.5,3.211c-.29.155-.588.3-.891.432A13.6,13.6,0,0,1,147.9,86.476v-.112a13.606,13.606,0,0,1,26.52-4.172"/><path class="c" d="M173.967,89.15a2.492,2.492,0,1,0-.6,3.473h0a2.494,2.494,0,0,0,.6-3.472"/><path class="d" d="M172.561,83.35l-2.468,4.275h4.936Z"/><rect class="e" width="4.656" height="4.865" transform="matrix(0.794, -0.608, 0.608, 0.794, 165.285, 94.253)"/><g class="f"><g class="g"><line class="a" x1="0.234" y2="0.079" transform="translate(172.365 82.802)"/></g></g><path class="e" d="M298.386,103.361h2.23v11.313h-2.23Zm8.727,3.006a2.927,2.927,0,0,1,2.19.889,3.377,3.377,0,0,1,.865,2.457v4.961h-2.085v-4.7a1.654,1.654,0,0,0-.436-1.236,1.586,1.586,0,0,0-1.164-.428,1.714,1.714,0,0,0-1.293.5,2.083,2.083,0,0,0-.485,1.5v4.364H302.62v-8.081H304.7v.9A2.691,2.691,0,0,1,307.113,106.367Zm10.958-3.006h2.084v11.313h-2.084v-.954a3.128,3.128,0,0,1-2.619,1.18,3.677,3.677,0,0,1-2.788-1.236,4.549,4.549,0,0,1,0-6.06,3.677,3.677,0,0,1,2.788-1.236,3.13,3.13,0,0,1,2.618,1.18Zm-3.836,8.913a2.182,2.182,0,0,0,1.608.638,2.153,2.153,0,0,0,1.6-.638,2.45,2.45,0,0,0,0-3.28,2.153,2.153,0,0,0-1.6-.638,2.182,2.182,0,0,0-1.608.638,2.427,2.427,0,0,0,0,3.28Zm8.865-6.651a1.3,1.3,0,0,1-1.28-1.28,1.248,1.248,0,0,1,.38-.9,1.214,1.214,0,0,1,.9-.388,1.233,1.233,0,0,1,.913.388,1.253,1.253,0,0,1,.38.9,1.228,1.228,0,0,1-.38.9,1.244,1.244,0,0,1-.916.38Zm-1.037,9.051v-8.081h2.085v8.081Zm10.133-8.081h2.085v8.081H332.2v-.954a3.173,3.173,0,0,1-2.634,1.18,3.666,3.666,0,0,1-2.772-1.236,4.55,4.55,0,0,1,0-6.06,3.662,3.662,0,0,1,2.772-1.236,3.173,3.173,0,0,1,2.634,1.18Zm-3.846,5.681a2.153,2.153,0,0,0,1.6.638,2.182,2.182,0,0,0,1.608-.638,2.427,2.427,0,0,0,0-3.28,2.182,2.182,0,0,0-1.608-.638,2.153,2.153,0,0,0-1.6.638,2.45,2.45,0,0,0,0,3.28Z"/></g></svg>